Coordinates
version=1
nRows=17
nColumns=38
inDegrees=yes

Units are S.I. units (second, meters, Newtons, ...)
Angles are in degrees.

endheader
time	pelvis_tilt	pelvis_list	pelvis_rotation	pelvis_tx	pelvis_ty	pelvis_tz	hip_flexion_r	hip_adduction_r	hip_rotation_r	knee_angle_r	ankle_angle_r	subtalar_angle_r	mtp_angle_r	hip_flexion_l	hip_adduction_l	hip_rotation_l	knee_angle_l	ankle_angle_l	subtalar_angle_l	mtp_angle_l	lumbar_extension	lumbar_bending	lumbar_rotation	arm_flex_r	arm_add_r	arm_rot_r	elbow_flex_r	pro_sup_r	wrist_flex_r	wrist_dev_r	arm_flex_l	arm_add_l	arm_rot_l	elbow_flex_l	pro_sup_l	wrist_flex_l	wrist_dev_l
      2.08000000	      0.25953108	     -1.31900958	      6.36374688	      0.94684159	      1.04676800	     -0.23757132	      7.82591986	      3.87369824	    -10.85463563	    -13.35120150	      3.40008921	     -9.75090561	      0.00000000	     15.23645750	     -3.00738705	      1.00852441	    -61.33125402	     -0.03193105	     -2.26656139	      0.00000000	     -8.89198672	      2.06441447	     -1.18054144	      6.50626480	     -8.09653472	     52.10130072	     22.33174171	     44.65623268	      0.00000000	      0.00000000	     -1.97998259	     -7.48198995	     40.71876797	     29.45668238	     44.65623268	      0.00000000	      0.00000000
      2.09000000	      0.09689680	     -1.00767190	      5.92210655	      0.95878593	      1.04751800	     -0.23616667	      7.03160144	      3.74073521	    -10.40954357	    -12.93500260	      3.91727363	     -9.43949365	      0.00000000	     16.64073088	     -2.70911149	      0.25083745	    -60.66393117	      0.89346966	     -2.34734610	      0.00000000	     -8.85712468	      1.51914675	     -0.66915660	      6.81817846	     -8.15861087	     52.15316445	     22.57193330	     44.65890906	      0.00000000	      0.00000000	     -2.16030289	     -7.54025373	     40.77708574	     29.39512164	     44.65890906	      0.00000000	      0.00000000
      2.10000000	     -0.04800079	     -0.87229162	      5.60035432	      0.97059979	      1.04794058	     -0.23481446	      6.18013117	      3.79242388	    -10.33558109	    -12.38096546	      4.34134568	     -9.32845801	      0.00000000	     18.03271979	     -2.53417813	     -0.24432146	    -59.82510586	      1.68538231	     -2.67380682	      0.00000000	     -8.85053554	      1.18292651	     -0.25829859	      7.21896504	     -8.19596013	     52.14129122	     22.68770151	     44.65966528	      0.00000000	      0.00000000	     -2.22879599	     -7.57447154	     40.78894218	     29.37392234	     44.65966528	      0.00000000	      0.00000000
      2.11000000	     -0.14472834	     -0.52615549	      5.04223644	      0.98249120	      1.04820616	     -0.23339229	      5.24566002	      3.62479512	     -9.68150326	    -11.85661000	      4.98060634	     -8.98128283	      0.00000000	     19.16608993	     -2.28587467	     -1.16299725	    -58.57078206	      2.57186579	     -2.93107057	      0.00000000	     -8.90511480	      0.62721912	      0.34314227	      7.55875367	     -8.29548554	     52.19991317	     22.98574101	     44.66228592	      0.00000000	      0.00000000	     -2.37459401	     -7.62422311	     40.82028215	     29.34995396	     44.66228592	      0.00000000	      0.00000000
      2.12000000	     -0.26044715	     -0.44693473	      4.66384302	      0.99430274	      1.04816574	     -0.23209167	      4.39781824	      3.71207516	     -9.52971683	    -11.34565366	      5.37109837	     -8.80735344	      0.00000000	     20.36276473	     -2.23704070	     -1.73637723	    -57.15855484	      3.19561275	     -3.24733005	      0.00000000	     -8.90575594	      0.35850438	      0.80637540	      7.98621249	     -8.37345724	     52.19678550	     23.14838661	     44.66331887	      0.00000000	      0.00000000	     -2.54573400	     -7.62154677	     40.84160146	     29.30986746	     44.66331887	      0.00000000	      0.00000000
      2.13000000	     -0.27821160	     -0.28882921	      4.11657500	      1.00628276	      1.04806009	     -0.23069553	      3.47224088	      3.70967224	     -9.16230551	    -10.86991010	      6.19987053	     -8.35092411	      0.00000000	     21.23237671	     -2.15240778	     -2.47124765	    -55.36914890	      3.61438852	     -3.79313853	      0.00000000	     -9.00407369	      0.00883083	      1.39153889	      8.36894959	     -8.51238822	     52.24566859	     23.45452011	     44.66539241	      0.00000000	      0.00000000	     -2.64831644	     -7.62375538	     40.85519506	     29.27799617	     44.66539241	      0.00000000	      0.00000000
      2.14000000	     -0.22677105	     -0.03042979	      3.66130460	      1.01820906	      1.04775988	     -0.22963865	      2.46663473	      3.58947969	     -8.64962424	    -10.55419251	      6.63397304	     -8.37244561	      0.00000000	     22.04729422	     -1.89689146	     -3.03130489	    -53.45456520	      3.68527547	     -4.30683338	      0.00000000	     -9.20057811	     -0.39763358	      1.91980593	      8.68826708	     -8.78033824	     52.40649089	     24.16154267	     44.67069701	      0.00000000	      0.00000000	     -2.62153154	     -7.63267472	     40.85558992	     29.25762973	     44.67069701	      0.00000000	      0.00000000
      2.15000000	     -0.35264604	     -0.02502325	      3.27740103	      1.03011100	      1.04686548	     -0.22862596	      1.63534027	      3.69659981	     -8.50634483	    -10.08327982	      7.09888392	     -8.16903342	      0.00000000	     22.99254546	     -1.95052138	     -3.59248621	    -51.34346022	      4.31074002	     -4.43857944	      0.00000000	     -9.14635997	     -0.52377507	      2.35199525	      9.11231264	     -8.88494309	     52.39772038	     24.35218349	     44.67185370	      0.00000000	      0.00000000	     -2.68943867	     -7.60827901	     40.86218567	     29.24541420	     44.67185370	      0.00000000	      0.00000000
      2.16000000	     -0.30609812	      0.07050303	      2.77212549	      1.04219371	      1.04618291	     -0.22753806	      0.59963087	      3.68879331	     -8.01997019	     -9.61922364	      7.63998920	     -7.80443535	      0.00000000	     23.86683367	     -2.19067634	     -4.90187623	    -49.24257340	      3.72316032	     -4.89862434	      0.00000000	     -9.29155334	     -0.75612229	      2.91314924	      9.48131509	     -9.03996217	     52.42860006	     24.67291433	     44.67373535	      0.00000000	      0.00000000	     -2.74161980	     -7.57128503	     40.86202712	     29.22377500	     44.67373535	      0.00000000	      0.00000000
      2.17000000	     -0.39022953	      0.02130560	      2.38360313	      1.05430120	      1.04497060	     -0.22669059	     -0.22663942	      3.82126778	     -7.71971805	     -9.30972275	      8.20255295	     -7.65695270	      0.00000000	     24.30327313	     -2.12473994	     -4.89466641	    -46.32400616	      4.58156518	     -4.82526488	      0.00000000	     -9.25518947	     -0.82662692	      3.38062790	      9.80622360	     -9.20576564	     52.44446941	     24.92065404	     44.67505927	      0.00000000	      0.00000000	     -2.73091808	     -7.50333730	     40.85940564	     29.21838072	     44.67505927	      0.00000000	      0.00000000
      2.18000000	     -0.19429326	      0.06542176	      1.99010750	      1.06661665	      1.04399204	     -0.22597159	     -1.45899160	      3.84856413	     -7.31692561	     -8.81313635	      8.85100718	     -7.43489493	      0.00000000	     24.46397165	     -2.15730831	     -5.40102687	    -43.35441314	      4.71819484	     -4.67923754	      0.00000000	     -9.52904838	     -0.95421037	      3.87578720	     10.04524309	     -9.46400934	     52.53731196	     25.48628970	     44.67791354	      0.00000000	      0.00000000	     -2.69605084	     -7.42972411	     40.84010367	     29.16220443	     44.67791354	      0.00000000	      0.00000000
      2.19000000	     -0.20360751	     -0.00811616	      1.63502228	      1.07894644	      1.04253022	     -0.22536536	     -2.44156951	      3.98192903	     -7.00763116	     -8.36506034	      9.38640494	     -7.25063229	      0.00000000	     24.88316323	     -2.33303280	     -6.00798232	    -40.37766334	      4.65565632	     -4.61043359	      0.00000000	     -9.54465134	     -0.95950715	      4.29874398	     10.34869188	     -9.68581670	     52.57480049	     25.91253064	     44.67999593	      0.00000000	      0.00000000	     -2.71698369	     -7.32620679	     40.83541153	     29.11217175	     44.67999593	      0.00000000	      0.00000000
      2.20000000	     -0.10908017	      0.00566980	      1.27380448	      1.09142521	      1.04110371	     -0.22490184	     -3.51701714	      4.00785815	     -6.69473875	     -7.98089255	     10.03044483	     -7.12977952	      0.00000000	     24.99925975	     -2.39665692	     -6.60485927	    -37.07335075	      4.38983054	     -4.42948439	      0.00000000	     -9.67796964	     -1.05043261	      4.70715793	     10.52726357	     -9.99633772	     52.65845623	     26.62752428	     44.68361823	      0.00000000	      0.00000000	     -2.65847489	     -7.21639270	     40.80646465	     28.98629724	     44.68361823	      0.00000000	      0.00000000
      2.21000000	     -0.28114474	     -0.33520799	      1.10616662	      1.10385056	      1.03897594	     -0.22456625	     -4.23440293	      4.41312996	     -6.61580499	     -7.71872238	     10.61028168	     -7.12489878	      0.00000000	     25.55044116	     -2.75803037	     -7.00789787	    -33.96352134	      3.89743873	     -4.20483559	      0.00000000	     -9.47147974	     -0.72483303	      4.94585660	     10.76563970	    -10.09278121	     52.61982801	     26.78732291	     44.68450306	      0.00000000	      0.00000000	     -2.70003916	     -7.14173897	     40.79987634	     28.99840842	     44.68450306	      0.00000000	      0.00000000
      2.22000000	     -0.15961697	     -0.26418188	      0.56731853	      1.11662347	      1.03736280	     -0.22408623	     -5.41782864	      4.30461682	     -6.30646240	     -7.17973488	     11.19722806	     -6.72908393	      0.00000000	     25.41676648	     -2.79844130	     -7.73803470	    -30.36321040	      3.20086925	     -3.82647459	      0.00000000	     -9.59851382	     -0.88133541	      5.52781698	     11.01151526	    -10.40652216	     52.62392921	     27.33520182	     44.68725656	      0.00000000	      0.00000000	     -2.76203242	     -6.93524593	     40.77843224	     28.88740482	     44.68725656	      0.00000000	      0.00000000
      2.23000000	     -0.07756425	     -0.38891247	      0.21802833	      1.12941099	      1.03537432	     -0.22381595	     -6.49759156	      4.44775733	     -5.69433191	     -6.86739059	     11.63825295	     -6.76038593	      0.00000000	     25.41148518	     -3.00382254	     -8.38146053	    -26.97242812	      2.55267202	     -3.04400853	      0.00000000	     -9.67953069	     -0.79711331	      5.89962901	     11.07827829	    -10.92031541	     52.60831355	     28.76061747	     44.69531169	      0.00000000	      0.00000000	     -2.69747323	     -6.71331992	     40.69674734	     28.47197514	     44.69531169	      0.00000000	      0.00000000
      2.24000000	     -0.06286546	     -0.53195615	     -0.21710795	      1.14236804	      1.03315957	     -0.22351841	     -7.46632948	      4.55673121	     -5.28083611	     -6.59448331	     12.19944884	     -6.62061061	      0.00000000	     25.44166295	     -3.22595396	     -9.03884994	    -23.63748022	      1.93381097	     -2.12852425	      0.00000000	     -9.65350948	     -0.70049715	      6.34446202	     11.19746326	    -11.16311964	     52.44417253	     29.33666838	     44.69986254	      0.00000000	      0.00000000	     -2.73781311	     -6.54694618	     40.69211375	     28.32112494	     44.69986254	      0.00000000	      0.00000000
